<svg width="497" height="446" viewBox="0 0 497 446" fill="none" xmlns="http://www.w3.org/2000/svg">
<rect width="496.782" height="275.99" rx="50" fill="white"/>
<rect x="124.748" y="248.391" width="248.391" height="197.609" rx="25" fill="white"/>
<rect x="36.4307" y="257.829" width="124.196" height="124.196" transform="rotate(-45 36.4307 257.829)" fill="white"/>
<rect x="62.1524" y="199.595" width="124.196" height="124.196" rx="62.0978" transform="rotate(-90 62.1524 199.595)" fill="black"/>
<rect width="124.196" height="124.196" transform="matrix(-0.707107 -0.707107 -0.707107 0.707107 459.357 257.829)" fill="white"/>
<rect x="309.44" y="199.595" width="124.196" height="124.196" rx="62.0978" transform="rotate(-90 309.44 199.595)" fill="black"/>
<path d="M239.731 177.282C243.58 170.616 253.202 170.615 257.051 177.282L292.314 238.359C296.163 245.026 291.352 253.359 283.654 253.359H213.128C205.43 253.359 200.619 245.026 204.468 238.359L239.731 177.282Z" fill="black"/>
<path d="M164.49 314.109C164.49 311.347 166.729 309.109 169.49 309.109H189.297C192.058 309.109 194.297 311.347 194.297 314.109V446H164.49V314.109Z" fill="black"/>
<path d="M210.856 314.109C210.856 311.347 213.095 309.109 215.856 309.109H235.663C238.425 309.109 240.663 311.347 240.663 314.109V446H210.856V314.109Z" fill="black"/>
<path d="M257.223 314.109C257.223 311.347 259.461 309.109 262.223 309.109H282.03C284.791 309.109 287.03 311.347 287.03 314.109V446H257.223V314.109Z" fill="black"/>
<path d="M303.589 314.109C303.589 311.347 305.828 309.109 308.589 309.109H328.396C331.157 309.109 333.396 311.347 333.396 314.109V446H303.589V314.109Z" fill="black"/>
</svg>
